<svg id="Layer_1" data-name="Layer 1" xmlns="http://www.w3.org/2000/svg" viewBox="0 0 182.97 220.76"><path d="M229.06,57.54,66,57.31a3.71,3.71,0,0,1,2.18-6.83c5.54,0,11.11.17,16.67.17H210.05V43.18H68.52c-1.81,0-3.63,0-5.44,0A15.08,15.08,0,0,0,52.4,47,14.92,14.92,0,0,0,48.87,52c-.36.81-1.35,3.09-1.24,4.45v.88h-.09q0,15.75-.08,31.52-.1,44.34-.22,88.68,0,20.47-.1,41c0,7.77-1,15.67-.33,23.43.53,6.26,2.8,13.65,8.16,17.37s13.25,4.43,19.62,4.5c15.47.17,30.94-.27,46.42-.25q27.7,0,55.4.18l53.15.24Z" transform="translate(-46.59 -43.16)"/></svg>