<svg xmlns="http://www.w3.org/2000/svg" viewBox="0 0 24 22" fill="none" x="0px" y="0px"><path fill-rule="evenodd" clip-rule="evenodd" d="M6 0C6.55228 0 7 0.447715 7 1V2H17V1C17 0.447715 17.4477 0 18 0C18.5523 0 19 0.447715 19 1V2H21C22.6569 2 24 3.34315 24 5V19C24 20.6569 22.6569 22 21 22H3C1.34314 22 0 20.6569 0 19V5C0 3.34315 1.34315 2 3 2H5V1C5 0.447715 5.44772 0 6 0ZM7 17C6.44772 17 6 17.4477 6 18C6 18.5523 6.44772 19 7 19H17C17.5523 19 18 18.5523 18 18C18 17.4477 17.5523 17 17 17H7Z" fill="black"></path></svg>