<svg xmlns="http://www.w3.org/2000/svg" xmlns:xlink="http://www.w3.org/1999/xlink" viewBox="0 0 48 48" version="1.1" x="0px" y="0px"><title>9.15</title><desc>Created with Sketch.</desc><g stroke="none" stroke-width="1" fill="none" fill-rule="evenodd"><g fill="#000000"><g><path d="M4,12 C4,10.8954305 4.89153983,10 5.99729162,10 L42.0027084,10 C43.1057821,10 44,10.8877296 44,12 C44,13.1045695 43.1084602,14 42.0027084,14 L5.99729162,14 C4.89421792,14 4,13.1122704 4,12 Z M4,24 C4,22.8954305 4.89153983,22 5.99729162,22 L42.0027084,22 C43.1057821,22 44,22.8877296 44,24 C44,25.1045695 43.1084602,26 42.0027084,26 L5.99729162,26 C4.89421792,26 4,25.1122704 4,24 Z M4,36 C4,34.8954305 4.89153983,34 5.99729162,34 L42.0027084,34 C43.1057821,34 44,34.8877296 44,36 C44,37.1045695 43.1084602,38 42.0027084,38 L5.99729162,38 C4.89421792,38 4,37.1122704 4,36 Z"></path></g></g></g></svg>