<svg xmlns="http://www.w3.org/2000/svg" xmlns:xlink="http://www.w3.org/1999/xlink" version="1.1" x="0px" y="0px" viewBox="0 0 100 100" style="enable-background:new 0 0 100 100;" xml:space="preserve"><path d="M46.9,41.1c0,0.7-0.1,1.4-0.1,2c-0.4,6.1-3.5,13.5-9.1,20.1C28.9,73.6,17.1,78.3,10,74.8c6.1-1.3,13-5.6,18.6-12.3  c1.2-1.4,2.3-2.9,3.3-4.4c-0.7,0.1-1.4,0.1-2,0.1c-9.4,0-17-7.6-17-17s7.6-17,17-17C39.2,24.1,46.9,31.8,46.9,41.1z"></path><path d="M90,41.1c0,0.7-0.1,1.4-0.1,2c-0.4,6.1-3.5,13.5-9.1,20.1C72,73.6,60.3,78.3,53.1,74.8c6.1-1.3,13-5.6,18.6-12.3  C72.9,61,74,59.5,75,58c-0.7,0.1-1.4,0.1-2,0.1c-9.4,0-17-7.6-17-17s7.6-17,17-17C82.4,24.1,90,31.8,90,41.1z"></path></svg>