<svg xmlns="http://www.w3.org/2000/svg" xmlns:xlink="http://www.w3.org/1999/xlink" version="1.1" x="0px" y="0px" viewBox="0 0 100 100" style="enable-background:new 0 0 100 100;" xml:space="preserve"><path d="M53.1,41.1c0,0.7,0.1,1.4,0.1,2c0.4,6.1,3.5,13.5,9.1,20.1C71.1,73.6,82.9,78.3,90,74.8c-6.1-1.3-13-5.6-18.6-12.3  c-1.2-1.4-2.3-2.9-3.3-4.4c0.7,0.1,1.4,0.1,2,0.1c9.4,0,17-7.6,17-17s-7.6-17-17-17C60.8,24.1,53.1,31.8,53.1,41.1z"></path><path d="M10,41.1c0,0.7,0.1,1.4,0.1,2c0.4,6.1,3.5,13.5,9.1,20.1C28,73.6,39.7,78.3,46.9,74.8c-6.1-1.3-13-5.6-18.6-12.3  C27.1,61,26,59.5,25,58c0.7,0.1,1.4,0.1,2,0.1c9.4,0,17-7.6,17-17s-7.6-17-17-17C17.6,24.1,10,31.8,10,41.1z"></path></svg>