<svg id="Layer_1" data-name="Layer 1" xmlns="http://www.w3.org/2000/svg" viewBox="0 0 384.97 137.93"><defs><style>.cls-1{fill:#857b6a;}</style></defs><path class="cls-1" d="M33.71,73.92v58.77H23.55V73.92Zm-4,58.77v-9.32H42.27a24.29,24.29,0,0,0,8.06-1.3,18.74,18.74,0,0,0,6.42-3.78A17.11,17.11,0,0,0,61,112a25.36,25.36,0,0,0,0-17.46,17.53,17.53,0,0,0-4.29-6.3,18,18,0,0,0-6.42-3.77,24.81,24.81,0,0,0-8.06-1.26H29.68V73.92H42.52a33,33,0,0,1,15.79,3.65A26.63,26.63,0,0,1,68.93,87.81a30.44,30.44,0,0,1,3.82,15.49,30.38,30.38,0,0,1-3.82,15.49A26.5,26.5,0,0,1,58.31,129a32.84,32.84,0,0,1-15.79,3.66Z" transform="translate(-22.49 -70.64)"/><path class="cls-1" d="M92.14,73.92v58.77H82.4V73.92Zm-3.61,0h29.64v8.73H88.53Zm0,23h28v8.57h-28Zm0,27h29.64v8.73H88.53Z" transform="translate(-22.49 -70.64)"/><path class="cls-1" d="M137.89,97.51h9.49a12.09,12.09,0,0,0,4.87-.92,7.51,7.51,0,0,0,3.27-2.65,7.14,7.14,0,0,0,1.18-4.15,6.82,6.82,0,0,0-2.56-5.71,10.59,10.59,0,0,0-6.76-2h-7.14v42.4h8.23a15.23,15.23,0,0,0,6-1.09,9.38,9.38,0,0,0,4.12-3.23,9.25,9.25,0,0,0,1.51-5.42,9.71,9.71,0,0,0-.84-4.2,8.06,8.06,0,0,0-2.44-3,10.18,10.18,0,0,0-3.69-1.76,18.52,18.52,0,0,0-4.62-.55H137.89V99.69h11.17a33.17,33.17,0,0,1,8.1,1,22.1,22.1,0,0,1,6.76,2.89,14,14,0,0,1,4.62,5,14.62,14.62,0,0,1,1.68,7.22,16.13,16.13,0,0,1-2.69,9.57,15.67,15.67,0,0,1-7.43,5.58,30.79,30.79,0,0,1-11,1.81H130.34V73.92h17.71a27.72,27.72,0,0,1,9.83,1.59,14.28,14.28,0,0,1,6.59,4.87,13.78,13.78,0,0,1,2.39,8.31,11.71,11.71,0,0,1-2.39,7.43,14.78,14.78,0,0,1-6.59,4.66,27.49,27.49,0,0,1-9.83,1.6H137.89Z" transform="translate(-22.49 -70.64)"/><path class="cls-1" d="M179.7,91.13a28.14,28.14,0,0,1,6.43-9.61,30.21,30.21,0,0,1,9.73-6.38,32.9,32.9,0,0,1,24.22,0,30.29,30.29,0,0,1,9.7,6.38,28.26,28.26,0,0,1,6.42,9.61,31.66,31.66,0,0,1,2.27,12.17,32.11,32.11,0,0,1-2.27,12.18,28.66,28.66,0,0,1-6.38,9.73,29.51,29.51,0,0,1-9.65,6.43,33.34,33.34,0,0,1-24.39,0,29.52,29.52,0,0,1-9.7-6.43,28.81,28.81,0,0,1-6.38-9.73,32.3,32.3,0,0,1-2.26-12.18A31.85,31.85,0,0,1,179.7,91.13Zm10.83,22.92a19.73,19.73,0,0,0,7.1,7.43,19.77,19.77,0,0,0,27.7-7.43,22.07,22.07,0,0,0,2.56-10.75,22.67,22.67,0,0,0-2.52-10.79,18.66,18.66,0,0,0-7-7.43,20,20,0,0,0-10.45-2.68,19.63,19.63,0,0,0-10.28,2.68,19.37,19.37,0,0,0-7.1,7.43,22.14,22.14,0,0,0-2.6,10.79A21.87,21.87,0,0,0,190.53,114.05Z" transform="translate(-22.49 -70.64)"/><path class="cls-1" d="M258.12,73.92v58.77h-9.91V73.92Zm-4,0h12.25a25.39,25.39,0,0,1,11.17,2.27,17.79,17.79,0,0,1,7.35,6.33,18.9,18.9,0,0,1,0,19.27,17.68,17.68,0,0,1-7.35,6.38,25.53,25.53,0,0,1-11.17,2.27H254.09v-8.23h11.83a14.47,14.47,0,0,0,6-1.13,9,9,0,0,0,3.95-3.36,10.72,10.72,0,0,0,0-10.7,9.23,9.23,0,0,0-3.95-3.36,13.84,13.84,0,0,0-6-1.18H254.09Zm17,30.73,20,28H279l-18.64-28Z" transform="translate(-22.49 -70.64)"/><path class="cls-1" d="M314.36,112.12l-.16,2.18-8.15,18.39H294.89l28.71-62,28.8,62.05H341.15l-8-17.89-.17-2.43-9.4-21.83Zm-4.19-2.94h27.28l1.85,8.39H308.24Z" transform="translate(-22.49 -70.64)"/><path class="cls-1" d="M368,73.92v58.77H358.1V73.92Zm-6,22.67h42v9.15h-42Zm45.42-22.67v58.77h-9.91V73.92Z" transform="translate(-22.49 -70.64)"/><path class="cls-1" d="M32.74,205.64H22.49l8.06-61.71,24.1,39.88,24.18-39.88,8.06,61.71H76.64l-4-35.77-18,30.31L36.77,169.87Z" transform="translate(-22.49 -70.64)"/><path class="cls-1" d="M110.9,185.07l-.17,2.18-8.14,18.39H91.42l28.71-62,28.8,62H137.68l-8-17.88-.17-2.44-9.4-21.83Zm-4.2-2.94H134l1.85,8.4H104.77Z" transform="translate(-22.49 -70.64)"/><path class="cls-1" d="M165.8,146.87v58.77H155.64V146.87Zm-4,58.77v-9.32h12.59a24,24,0,0,0,8.06-1.3,18.69,18.69,0,0,0,6.43-3.78,17.13,17.13,0,0,0,4.28-6.25,25.39,25.39,0,0,0,0-17.47,17.47,17.47,0,0,0-4.28-6.29,17.8,17.8,0,0,0-6.43-3.78,24.81,24.81,0,0,0-8.06-1.26H161.77v-9.32h12.85a32.91,32.91,0,0,1,15.78,3.65A26.63,26.63,0,0,1,201,160.76a33.32,33.32,0,0,1,0,31A26.59,26.59,0,0,1,190.4,202a32.91,32.91,0,0,1-15.78,3.65Z" transform="translate(-22.49 -70.64)"/><path class="cls-1" d="M224.57,146.87v58.77H214.49V146.87Z" transform="translate(-22.49 -70.64)"/><path class="cls-1" d="M245.6,192.62a17.22,17.22,0,0,0,5,3.95,12.77,12.77,0,0,0,6,1.43,9.66,9.66,0,0,0,6.55-2.18,7.2,7.2,0,0,0,2.52-5.71,8.16,8.16,0,0,0-1.55-5.17,12.55,12.55,0,0,0-4.41-3.36,69,69,0,0,0-6.55-2.72,46.66,46.66,0,0,1-4.87-2.06,26.69,26.69,0,0,1-5.12-3.27,16.39,16.39,0,0,1-4-4.87,15.71,15.71,0,0,1,.84-15.28,16.56,16.56,0,0,1,6.59-5.59,21.43,21.43,0,0,1,9.45-2,20.36,20.36,0,0,1,9.06,1.89,22.69,22.69,0,0,1,10.67,10.7l-8,4.54a21.51,21.51,0,0,0-2.85-4.08,13.33,13.33,0,0,0-3.91-3,11.27,11.27,0,0,0-5.16-1.13q-4.11,0-6.05,1.89a6,6,0,0,0-1.93,4.4,6.56,6.56,0,0,0,1.39,4.08,13.52,13.52,0,0,0,4.32,3.4,56.33,56.33,0,0,0,7.64,3.27,36.07,36.07,0,0,1,5.33,2.35,21,21,0,0,1,4.79,3.53,16.67,16.67,0,0,1,3.48,5,15.87,15.87,0,0,1,1.35,6.76,16.12,16.12,0,0,1-6.05,12.89,21,21,0,0,1-6.25,3.44,22,22,0,0,1-7.27,1.22,22.22,22.22,0,0,1-9.52-2.06,25.62,25.62,0,0,1-7.73-5.5,28.45,28.45,0,0,1-5.25-7.47l7.39-5.21A33.61,33.61,0,0,0,245.6,192.62Z" transform="translate(-22.49 -70.64)"/><path class="cls-1" d="M285.1,164.08a28.26,28.26,0,0,1,6.42-9.61,30.25,30.25,0,0,1,9.74-6.38,32.9,32.9,0,0,1,24.22,0,30.4,30.4,0,0,1,9.7,6.38,28.26,28.26,0,0,1,6.42,9.61,31.85,31.85,0,0,1,2.27,12.17,32.31,32.31,0,0,1-2.27,12.18,29,29,0,0,1-6.38,9.74,29.58,29.58,0,0,1-9.66,6.42,33.32,33.32,0,0,1-24.38,0,29.44,29.44,0,0,1-9.7-6.42,29,29,0,0,1-6.38-9.74,32.31,32.31,0,0,1-2.27-12.18A31.85,31.85,0,0,1,285.1,164.08ZM295.93,187a19.7,19.7,0,0,0,7.09,7.43A19.77,19.77,0,0,0,330.73,187a22.18,22.18,0,0,0,2.56-10.75,22.6,22.6,0,0,0-2.52-10.78,18.66,18.66,0,0,0-7-7.43,20,20,0,0,0-10.45-2.69A19.7,19.7,0,0,0,303,158a19.21,19.21,0,0,0-7.09,7.43,23.59,23.59,0,0,0,0,21.53Z" transform="translate(-22.49 -70.64)"/><path class="cls-1" d="M406.24,146.87v61.71l-42.9-42.4v39.46h-9.73V143.93l42.9,42.4V146.87Z" transform="translate(-22.49 -70.64)"/></svg>